<?xml version="1.0" standalone="no"?>
<!DOCTYPE svg PUBLIC "-//W3C//DTD SVG 20010904//EN"
 "http://www.w3.org/TR/2001/REC-SVG-20010904/DTD/svg10.dtd">
<svg version="1.0" xmlns="http://www.w3.org/2000/svg"
 width="40.000000pt" height="40.000000pt" viewBox="0 0 120.000000 120.000000"
 preserveAspectRatio="xMidYMid meet">

<g transform="translate(0.000000,120.000000) scale(0.100000,-0.100000)"
fill="#ffff" stroke="none">
<path d="M0 600 l0 -600 600 0 600 0 0 600 0 600 -600 0 -600 0 0 -600z m311
262 c48 -40 17 -122 -46 -122 -63 0 -91 74 -45 120 25 25 61 26 91 2z m724 -7
c30 -30 31 -54 4 -89 -40 -50 -119 -21 -119 44 0 35 34 70 67 70 13 0 35 -11
48 -25z m24 -289 c22 -26 -5 -52 -80 -80 -152 -56 -295 -57 -417 -1 -44 20
-53 28 -50 47 4 29 40 29 118 -1 97 -36 236 -26 350 27 55 25 64 26 79 8z"/>
</g>
</svg>
